<svg xmlns="http://www.w3.org/2000/svg" aria-hidden="true" style="position:absolute;width:0;height:0;overflow:hidden">
  <defs>
    <symbol id="icon-chocolate" viewBox="0 0 32 32">
      <path fill="#fcf1e0" d="M3.944 20.076 14.721 2.652l.64-.675 8.235 5.491.057 3.315 2.009 3.28-8.88 14.076-12.839-8.063z" style="fill:var(--color1, #fcf1e0)"/>
      <path fill="none" stroke="#fd9222" stroke-linecap="round" stroke-linejoin="round" stroke-width="2.667" d="M21.635 23.88 7.448 15.016m3.913-6.417 14.185 8.864m-14.917 8.401L22.365 6.615m4.811 8.173c-3.04-1.899-4.233-3.383-2.277-6.591l-9.627-6.016L3.537 21.432l14.187 8.864 9.453-15.507z" style="stroke:var(--color2, #fd9222)"/>
    </symbol>
    <symbol id="icon-x" viewBox="0 0 32 32">
      <path stroke-linecap="round" stroke-linejoin="round" stroke-width="2.909" d="M24 8 8 24M8 8l16 16"/>
    </symbol>
    <symbol id="icon-Coin" viewBox="0 0 32 32">
      <path fill="#fd9222" d="M16 2.667c-7.334 0-13.334 6-13.334 13.333s6 13.333 13.334 13.333c7.333 0 13.333-6 13.333-13.333S23.333 2.667 16 2.667zm0 24c-5.867 0-10.667-4.8-10.667-10.667S10.133 5.333 16 5.333c5.866 0 10.666 4.8 10.666 10.667S21.866 26.667 16 26.667z" style="fill:var(--color2, #fd9222)"/>
      <path fill="#fd9222" d="M17.733 14.667h-3.466c-.667 0-1.2-.534-1.2-1.2 0-.667.533-1.2 1.2-1.2H19.2c.8 0 1.333-.534 1.333-1.334S20 9.6 19.2 9.6h-1.867V8.4c0-.8-.533-1.333-1.333-1.333S14.667 7.6 14.667 8.4v1.2h-.4a3.87 3.87 0 0 0-3.867 3.867 3.87 3.87 0 0 0 3.867 3.866H17.6c.667 0 1.2.534 1.2 1.2 0 .667-.533 1.2-1.2 1.2h-4.933c-.8 0-1.334.534-1.334 1.334s.534 1.333 1.334 1.333h2v1.2c0 .8.533 1.333 1.333 1.333s1.333-.533 1.333-1.333v-1.2h.4a3.87 3.87 0 0 0 3.867-3.867 3.87 3.87 0 0 0-3.867-3.866z" style="fill:var(--color2, #fd9222)"/>
    </symbol>
    <symbol id="icon-angle" viewBox="0 0 32 32">
      <path d="M16.947 17.866a1.329 1.329 0 0 1-1.892 0l-6.109-6.119a1.334 1.334 0 1 0-1.892 1.879l.001.001 6.119 6.121c.724.723 1.723 1.17 2.827 1.17s2.103-.447 2.827-1.17l6.119-6.121a1.334 1.334 0 0 0-1.893-1.879l-6.108 6.119z" style="fill:var(--color2, #fd9222)"/>
    </symbol>
    <symbol id="icon-emoji" viewBox="0 0 32 32">
      <path d="m13.822 2.413 7.527 7.536.08-.08a.854.854 0 0 1 1.185-.012l.873.873c.305.305.315.77.083 1.094l-.004.007-.143.192 6.16 6.16c.55.55.55 1.43 0 1.98l-9.43 9.43c-.55.55-1.43.55-1.98 0l-4.447-4.447a.84.84 0 0 1-1.255.071l-2.6-2.6a.854.854 0 0 1-.012-1.185l.006-.007.077-.076-7.527-7.527c-.55-.55-.55-1.43 0-1.98l9.43-9.43c.55-.55 1.43-.55 1.98 0v.001zm6.582 8.48-1.756-1.755a.59.59 0 0 0-.85 0l-3.58 3.58a.603.603 0 0 0 0 .86l1.749 1.749.61-.61-1.565-1.565 3.21-3.22 1.569 1.574.613-.613zm-5.076 5.072-1.754-1.754a.59.59 0 0 0-.85 0l-3.59 3.59c-.24.23-.24.61 0 .85l1.752 1.752.616-.616-1.57-1.564 3.22-3.21 1.564 1.563.612-.611zM8.822 8.193l3.58 3.58c.24.24.62.24.85-.01l3.58-3.58a.579.579 0 0 0 .18-.42h.01c0-.15-.06-.31-.18-.43l-3.58-3.58a.604.604 0 0 0-.86 0l-3.58 3.59c-.24.23-.24.61 0 .85zm-5.07 5.07 3.58 3.58c.24.24.62.24.85 0l3.58-3.58a.579.579 0 0 0 .18-.42v-.01.001h.01c0-.16-.06-.31-.18-.43l-3.58-3.58a.59.59 0 0 0-.85 0l-3.59 3.59c-.24.23-.24.61 0 .85zm6.933 8.754 2.362 2.363 9.636-13.04-.655-.655-11.343 11.332z" style="fill:var(--color3, #000)"/>
      <path fill="#fd9222" d="m13.822 2.413 7.527 7.536.08-.08a.854.854 0 0 1 1.185-.012l.873.873c.305.305.315.77.083 1.094l-.004.007-.143.192 6.16 6.16c.55.55.55 1.43 0 1.98l-9.43 9.43c-.55.55-1.43.55-1.98 0l-4.447-4.447a.84.84 0 0 1-1.255.071l-2.6-2.6a.854.854 0 0 1-.012-1.185l.006-.007.077-.076-7.527-7.527c-.55-.55-.55-1.43 0-1.98l9.43-9.43c.55-.55 1.43-.55 1.98 0v.001zm6.582 8.48-1.756-1.755a.59.59 0 0 0-.85 0l-3.58 3.58a.603.603 0 0 0 0 .86l1.749 1.749.61-.61-1.565-1.565 3.21-3.22 1.569 1.574.613-.613zm-5.076 5.072-1.754-1.754a.59.59 0 0 0-.85 0l-3.59 3.59c-.24.23-.24.61 0 .85l1.752 1.752.616-.616-1.57-1.564 3.22-3.21 1.564 1.563.612-.611zM8.822 8.193l3.58 3.58c.24.24.62.24.85-.01l3.58-3.58a.579.579 0 0 0 .18-.42h.01c0-.15-.06-.31-.18-.43l-3.58-3.58a.604.604 0 0 0-.86 0l-3.58 3.59c-.24.23-.24.61 0 .85zm-5.07 5.07 3.58 3.58c.24.24.62.24.85 0l3.58-3.58a.579.579 0 0 0 .18-.42v-.01.001h.01c0-.16-.06-.31-.18-.43l-3.58-3.58a.59.59 0 0 0-.85 0l-3.59 3.59c-.24.23-.24.61 0 .85zm6.933 8.754 2.362 2.363 9.636-13.04-.655-.655-11.343 11.332z" style="fill:var(--color2, #fd9222)"/>
    </symbol>
    <symbol id="icon-spoon" viewBox="0 0 32 32">
      <path fill="#fd9222" d="M15.451 14.106a5.127 5.127 0 0 1-1.176-3.278v-.004c0-4.324 5.18-8.642 10.362-8.642a5.184 5.184 0 0 1 5.181 5.182c0 5.182-4.318 10.364-8.646 10.364h-.003a5.13 5.13 0 0 1-3.287-1.184l.009.007L5.132 29.312a1.73 1.73 0 0 1-2.442-2.446l-.001.001 12.762-12.761z" style="fill:var(--color2, #fd9222)"/>
    </symbol>
    <symbol id="icon-menu" viewBox="0 0 32 32">
      <path stroke-linecap="round" stroke-linejoin="round" stroke-width="2.5" d="M4 16h24M4 8h24M4 24h24"/>
    </symbol>
    <symbol id="icon-instagram" viewBox="0 0 32 32">
      <path stroke-linecap="round" stroke-linejoin="round" stroke-width="2.667" d="M22.667 2.667H9.334a6.667 6.667 0 0 0-6.667 6.667v13.333a6.667 6.667 0 0 0 6.667 6.667h13.333a6.667 6.667 0 0 0 6.667-6.667V9.334a6.667 6.667 0 0 0-6.667-6.667z"/>
      <path stroke-linecap="round" stroke-linejoin="round" stroke-width="2.667" d="M21.333 15.16a5.333 5.333 0 1 1-10.547 1.593l-.003-.028a5.333 5.333 0 0 1 10.547-1.596l.004.031z"/>
      <path stroke-linecap="round" stroke-linejoin="round" stroke-width="2.667" d="M21.333 15.16a5.333 5.333 0 1 1-10.547 1.593l-.003-.028a5.333 5.333 0 0 1 10.547-1.596l.004.031zm2-6.493h.013m-.013 0h.013"/>
    </symbol>
    <symbol id="icon-twitter" viewBox="0 0 37 32">
<path stroke-linejoin="round" stroke-linecap="round" stroke-miterlimit="4" stroke-width="2.5263" d="M35.508 2.947c-1.389 0.991-2.999 1.796-4.728 2.33l-0.119 0.032c-1.275-1.46-3.14-2.377-5.218-2.377-3.82 0-6.917 3.097-6.917 6.917 0 0.032 0 0.064 0.001 0.096l-0-0.005v1.544c-0.127 0.004-0.277 0.006-0.427 0.006-2.698 0-5.245-0.649-7.492-1.8l0.093 0.043c-2.424-1.219-4.93-4.125-6.489-6.346 0 0-5.755 15 8.14 21.174-2.828 1.943-6.326 3.103-10.094 3.103-0.25 0-0.499-0.005-0.747-0.015l0.036 0.001c13.895 7.719 30.877 0 30.877-17.755 0-0.429-0.042-0.859-0.123-1.28 1.531-1.511 2.655-3.432 3.193-5.585l0.017-0.082z"></path>
</symbol>
<symbol id="icon-twitter2" viewBox="0 0 37 32">
<path stroke="#fff" style="stroke: var(--color1, #fff)" stroke-linejoin="round" stroke-linecap="round" stroke-miterlimit="4" stroke-width="2.5263" d="M35.509 2.947c-1.478 1.043-3.115 1.84-4.848 2.362-0.93-1.069-2.166-1.827-3.54-2.171s-2.822-0.257-4.145 0.248c-1.324 0.505-2.46 1.405-3.256 2.577s-1.212 2.561-1.193 3.977v1.544c-2.713 0.070-5.402-0.531-7.826-1.752s-4.93-4.126-6.49-6.347c0 0-5.754 14.999 8.14 21.175-3.18 2.158-6.967 3.24-10.807 3.088 13.895 7.719 30.877 0 30.877-17.754-0.002-0.43-0.043-0.859-0.124-1.281 1.576-1.554 2.688-3.516 3.211-5.666z"></path>
</symbol>
<symbol id="icon-instagram2" viewBox="0 0 32 32">
      <path fill="none" stroke="#fff" stroke-linecap="round" stroke-linejoin="round" stroke-width="2.667" d="M22.667 2.667H9.334a6.667 6.667 0 0 0-6.667 6.667v13.333a6.667 6.667 0 0 0 6.667 6.667h13.333a6.667 6.667 0 0 0 6.667-6.667V9.334a6.667 6.667 0 0 0-6.667-6.667z" style="stroke:var(--color1, #fff)"/>
      <path fill="none" stroke="#fff" stroke-linecap="round" stroke-linejoin="round" stroke-width="2.667" d="M21.333 15.16a5.329 5.329 0 0 1-2.878 5.546 5.338 5.338 0 0 1-6.169-.992 5.33 5.33 0 0 1-.992-6.169 5.336 5.336 0 0 1 10.04 1.615zM23.333 8.667h.013" style="stroke:var(--color1, #fff)"/>
    </symbol>
    <symbol id="mob-twitter" viewBox="0 0 32 32">
      <path d="M21.213 2.829a7.168 7.168 0 0 0-4.282 2.05c-1.315 1.315-2.104 3.117-2.104 4.814v.44h-.21c-1.051 0-3.234-.578-4.522-1.197-1.688-.811-3.155-2.16-4.853-4.462-.568-.77-.768-.922-1.19-.914-.533.01-.973.347-1.218.936-.485 1.163-.947 3.179-1.126 4.906-.077.739-.08 2.456-.005 3.211.41 4.12 2.392 7.4 5.872 9.717.293.195.531.371.531.394 0 .061-1.07.493-1.814.733-1.384.446-2.576.638-4.24.685-.586.016-1.142.051-1.237.08-.427.13-.653.498-.654 1.066-.003.645.179.874 1.066 1.342 3.899 2.067 8.326 2.874 12.522 2.282 4.726-.667 8.981-3.165 11.731-6.886 2.398-3.245 3.693-7.355 3.693-11.733v-.989l.354-.424a11.725 11.725 0 0 0 2.237-4.34l.019-.083c.141-.541.139-.75-.01-1.045-.176-.349-.515-.541-1.018-.573-.442-.027-.466-.019-1.195.451-.557.366-1.2.719-1.871 1.02l-.089.036c-.784.341-.747.341-1.123.035a7.267 7.267 0 0 0-5.295-1.549l.031-.003zm1.493 2.424c1.05.171 1.787.547 2.638 1.347.803.755.918.779 1.998.413.389-.131.722-.24.738-.24.066 0-.301.474-.738.952-.25.275-.493.578-.539.675-.091.194-.102.586-.034 1.173.054.464-.019 2.176-.133 3.067-.821 6.514-4.734 11.411-10.632 13.304-2.579.829-5.419.986-8.274.461a16.352 16.352 0 0 1-1.663-.388l.119.03c-.045-.016.205-.11.555-.211 1.57-.454 3.934-1.598 4.712-2.282.259-.256.424-.607.438-.996v-.003c0-.525-.179-.702-1.264-1.24-1.493-.742-2.578-1.488-3.526-2.429-1.925-1.904-2.878-4.146-3.078-7.234-.064-.978.064-2.317.387-4.093.016-.08.043-.147.062-.147s.24.235.491.52c1.142 1.301 2.496 2.366 3.891 3.059 1.886.939 3.667 1.403 5.928 1.546 1.382.088 1.886.006 2.168-.352.182-.234.213-.435.24-1.678.03-1.288.082-1.648.333-2.275.259-.65.554-1.083 1.115-1.645.608-.61 1.053-.888 1.819-1.144.835-.278 1.403-.326 2.246-.19z"/>
    </symbol>
    <symbol id="mob-insta" viewBox="0 0 32 32">
      <path d="M8.084 1.684A7.794 7.794 0 0 0 1.911 7.11l-.014.055C1.593 8.215 1.6 8.003 1.6 16s-.007 7.785.297 8.835c.76 2.545 2.724 4.508 5.213 5.254l.055.014c1.05.304.838.297 8.835.297s7.785.007 8.835-.297c2.545-.76 4.508-2.724 5.254-5.213l.014-.055c.304-1.05.297-.838.297-8.835s.007-7.785-.297-8.835c-.76-2.545-2.724-4.508-5.213-5.254l-.055-.014c-1.053-.304-.826-.297-8.9-.291-5.911.006-7.514.022-7.85.079zm15.072 2.104a5.455 5.455 0 0 1 3.32 1.493l-.002-.002a5.518 5.518 0 0 1 1.737 3.544l.002.021c.073.768.073 13.545 0 14.313a5.455 5.455 0 0 1-1.493 3.32l.002-.002a5.518 5.518 0 0 1-3.544 1.737l-.021.002c-.768.073-13.545.073-14.313 0a5.523 5.523 0 0 1-3.562-1.735l-.003-.003a5.444 5.444 0 0 1-1.49-3.298l-.001-.02c-.073-.768-.073-13.545 0-14.313a5.455 5.455 0 0 1 1.493-3.32l-.002.002c.913-.972 2.189-1.61 3.468-1.734.676-.065 13.724-.07 14.41-.004zM22.8 7.67c-.384.183-.561.502-.559 1.008.003.698.401 1.088 1.104 1.078.735-.009 1.081-.356 1.081-1.084 0-.452-.127-.748-.401-.934-.266-.18-.913-.215-1.225-.068zm-7.2 1.854a6.656 6.656 0 0 0-2.428.684l.038-.018c-2.134 1.06-3.574 3.225-3.574 5.726 0 .204.01.406.028.605l-.002-.025a6.231 6.231 0 0 0 1.058 3.02l-.014-.022a6.496 6.496 0 0 0 4.321 2.796l.038.005c.534.084 1.632.071 2.131-.026 2.652-.512 4.672-2.516 5.185-5.145.116-.592.116-1.743.001-2.324-.273-1.383-.82-2.419-1.792-3.392a6.178 6.178 0 0 0-3.3-1.773l-.038-.006a8.556 8.556 0 0 0-1.667-.104h.014zm1.251 2.269c.809.127 1.599.556 2.243 1.216 1.956 2.009 1.42 5.377-1.062 6.665-.72.372-1.094.46-1.978.46-.662 0-.832-.019-1.174-.125a4.329 4.329 0 0 1-2.872-2.832L12 17.146c-.169-.532-.207-1.516-.081-2.086.217-.992.835-1.955 1.604-2.505 1.018-.726 2.052-.963 3.328-.762z"/>
    </symbol>
    <symbol id="mob-menu-open" viewBox="0 0 48 32">
      <path d="M2.36.078c-.65.168-1.084.554-1.236 1.1a4.237 4.237 0 0 0 .005 1.671l-.005-.027c.106.38.49.824.868 1.002.268.126 1.734.138 21.848.156 24.138.024 22.116.074 22.676-.546.328-.362.444-.736.444-1.434 0-.696-.116-1.072-.442-1.432-.56-.62 1.456-.568-22.508-.56C12.234.012 2.492.044 2.36.078zm0 14c-.65.168-1.084.554-1.236 1.1a4.237 4.237 0 0 0 .005 1.671l-.005-.027c.106.38.49.824.868 1.002.268.126 1.734.138 21.848.156 24.138.024 22.116.074 22.676-.546.328-.362.444-.736.444-1.434 0-.696-.116-1.072-.442-1.432-.56-.62 1.456-.568-22.508-.56-11.776.004-21.518.036-21.65.07zm0 14c-.65.168-1.084.554-1.236 1.1a4.237 4.237 0 0 0 .005 1.671l-.005-.027c.106.38.49.824.868 1.002.268.126 1.734.138 21.848.156 24.138.024 22.116.074 22.676-.546.328-.362.444-.736.444-1.434 0-.696-.116-1.072-.442-1.432-.56-.62 1.456-.568-22.508-.56-11.776.004-21.518.036-21.65.07z"/>
    </symbol>
    <symbol id="mob-menu-close" viewBox="0 0 32 32">
      <path d="M7.494 6.58c-.564.266-1.04.918-1.04 1.42 0 .548-.01.538 3.858 4.414L13.89 16l-3.604 3.614c-2.718 2.724-3.632 3.672-3.718 3.856-.246.524-.11 1.074.39 1.572.498.5 1.048.636 1.572.39.184-.086 1.132-1 3.856-3.718L16 18.108l3.614 3.606c2.724 2.718 3.672 3.632 3.856 3.718.524.246 1.074.11 1.572-.39.5-.498.636-1.048.39-1.572-.086-.184-1-1.132-3.718-3.856L18.11 16l3.582-3.586c3.87-3.878 3.854-3.858 3.854-4.414 0-.694-.852-1.546-1.546-1.546-.556 0-.536-.016-4.414 3.854L16 13.89l-3.586-3.582c-3.058-3.052-3.63-3.602-3.88-3.718a1.125 1.125 0 0 0-1.047-.007l.006-.003z"/>
    </symbol>
    <symbol id="mob-scroll" viewBox="0 0 32 32">
      <path d="M7.56 11.432a1.344 1.344 0 0 0-.811 1.703l-.003-.009c.088.272.27.464 3.22 3.426 1.72 1.728 3.304 3.282 3.52 3.456.458.368.838.572 1.396.746.574.182 1.658.182 2.238.002a4.428 4.428 0 0 0 1.414-.758c.176-.142 1.738-1.68 3.474-3.42 2.976-2.988 3.158-3.18 3.246-3.452a1.322 1.322 0 0 0-1.4-1.749l.006-.001a1.57 1.57 0 0 0-.464.122l.01-.004c-.098.05-1.644 1.55-3.432 3.336-2.252 2.244-3.316 3.27-3.452 3.328a1.745 1.745 0 0 1-1.056-.004l.012.003c-.136-.058-1.2-1.084-3.452-3.328-1.788-1.786-3.336-3.288-3.436-3.338a1.648 1.648 0 0 0-1.041-.057l.012-.003z" />
    </symbol>
  </defs>
</svg>